#!OML:ASF F:\VICON\USERDATA\INSTALL\rory3\rory3.ASF
:FULLY-SPECIFIED
:DEGREES
89
root -0.9197937790939366 17.048221325513573 14.397708652878812 2.9694889473529242 0.9566324705053046 0.5962593686241681
lfemur -32.61549659978121 5.7095842871426115 -24.157073546329578
ltibia 57.461386274872666
lfoot 1.4131118499513935 -11.040552668773062
ltoes -8.2753470725758
rfemur 1.2890179566788245 5.889460004495843 26.893073167687763
rtibia 85.9593674019695
rfoot -4.026201589923457 -11.962111174331355
rtoes 2.25887687444524
lowerback 15.8117693884183 2.158545078293981 0.16982375046908738
upperback -0.05608698599953177 2.947494796893677 -0.6144556725832789
thorax -9.054053331960947 1.35690707285816 -1.4724093758231547
lowerneck -19.787986886300843 -5.387621442305167 -1.5057539908287694
upperneck 12.195209735081333 -7.7929050796796675 4.4881001010974915
head 7.350352079925148 -3.2480352810443467 0.8196209265615759
lclavicle -2.0490533129104527e-17 4.258099200525808e-16
lhumerus -44.50041760056822 -9.89004831383102 93.1040458571146
lradius 105.22300434353711
lwrist 34.081763110181676
lhand -29.282045283942978 6.902787867489881
lfingers 7.125019999999998
lthumb -1.1984016786037535 35.98675584415691
rclavicle -2.04905333948048e-17 4.258099198775946e-16
rhumerus -46.99310202091272 9.56064180798347 -94.20384176819938
rradius 97.53118847955037
rwrist -17.5563081158554
rhand -18.975761856355973 38.155022212182814
rfingers 7.125019999999998
rthumb 6.878489723974521 8.811302114404407
90
root -0.8869948169204125 17.045004992616786 15.054282347618516 2.991677895690632 0.9823787108187949 0.9122487672201236
lfemur -31.338579528855195 5.792622673264549 -24.682368947232874
ltibia 55.644777233636916
lfoot 1.2219195356609847 -10.833514465401986
ltoes -7.181078635387241
rfemur 0.24687313552591128 5.514550648745704 26.274525500369414
rtibia 88.80076727137353
rfoot -4.431695677864426 -11.838141278999807
rtoes 3.0931049978736
lowerback 15.705885188583103 2.085490744171514 -0.09023487468362468
upperback -0.006758570687300625 2.780948436481338 -0.7189423121677417
thorax -8.990456693682582 1.3082796995126964 -1.346932562770894
lowerneck -20.050993111875123 -5.360443818579591 -1.507410410777076
upperneck 12.193021722692336 -7.756263087042292 4.526376260580222
head 7.39281135382177 -3.2198432075134322 0.8247612576667585
lclavicle -2.049053312927143e-17 4.2580992005267675e-16
lhumerus -44.94203913537508 -9.791435215966695 93.10586085751851
lradius 104.53925196149515
lwrist 34.09994028760198
lhand -29.703461384546234 6.394833843818887
lfingers 7.125019999999998
lthumb -1.6653867009521555 35.714259902318545
rclavicle -2.0490533392449935e-17 4.2580991987933926e-16
rhumerus -46.516954652001544 9.888735404757064 -94.2984305182998
rradius 97.64265397044636
rwrist -17.39096690574489
rhand -18.956884143877268 38.12705907734392
rfingers 7.125019999999998
rthumb 6.893667155934282 8.786265666106297
91
root -0.8877362424638402 17.042592863888373 15.406236943457543 3.082517213254599 0.9182355427749802 0.9156801947184936
lfemur -30.202837321918537 5.9284164176233425 -24.82108305520601
ltibia 54.016647091329304
lfoot 0.48122952687662357 -11.001417977287547
ltoes -7.202391800624092
rfemur -1.161540971620905 5.323607112172191 26.016880162032347
rtibia 91.54164774004533
rfoot -5.213478051648422 -11.924410662670756
rtoes 3.7451050217138
lowerback 15.699930580846031 2.026571182367698 -0.18587614712003708
upperback -0.03827694514285834 2.6850245674767934 -0.6811197345556262
thorax -9.11421070250512 1.256992759590843 -1.230467129946479
lowerneck -20.182921695588814 -5.307438690275812 -1.519841916424813
upperneck 12.14100475806525 -7.674975678178059 4.557250106335253
head 7.413927710608135 -3.173567608189388 0.8320407017783666
lclavicle -2.049053312625195e-17 4.2580992005481003e-16
lhumerus -45.404647215763084 -9.735587084386179 93.11480613074163
lradius 103.80817074999135
lwrist 34.14561925975728
lhand -29.568473828300966 6.777723366721002
lfingers 7.125019999999998
lthumb -1.9158848972369968 35.52124945960277
rclavicle -2.0490533392697795e-17 4.2580991987939986e-16
rhumerus -46.063620520106085 10.206580129216153 -94.37646701699924
rradius 97.71653429736942
rwrist -17.401051272558448
rhand -18.893715081337454 38.21028099419069
rfingers 7.125019999999998
rthumb 6.918244902366995 8.83795687373577
92
root -0.8997044349146227 17.053141673618985 15.728945093383754 3.184636796881726 0.7457913400688823 0.7743274476850794
lfemur -29.077003842933653 6.138928633781986 -24.787617472890275
ltibia 52.534877338566815
lfoot -0.27405193238068337 -11.247285539746834
ltoes -6.755191024228319
rfemur -2.7102375436582733 5.253419862694608 25.917755446902515
rtibia 94.04256506024262
rfoot -6.088490357469351 -12.032944636924801
rtoes 3.867438876986215
lowerback 15.7036975666216 1.9927798266176537 -0.1708411055630964
upperback -0.06783831777522992 2.645401365431397 -0.5715661497484273
thorax -9.246009902512982 1.2406113946557884 -1.1216885745635639
lowerneck -20.334065232712707 -5.2319969406304745 -1.5262961014005492
upperneck 12.10306328624724 -7.556394735460331 4.574402953231472
head 7.432108588687309 -3.113739610284787 0.8395767151687241
lclavicle -2.0490533126277056e-17 4.2580992005499995e-16
lhumerus -45.82467453932409 -9.718573232164285 93.1128624667496
lradius 103.03381919292691
lwrist 34.220045926459726
lhand -29.668680062957915 7.454458989497569
lfingers 7.125019999999998
lthumb -2.2019808075795333 35.407042260607106
rclavicle -2.049053338926845e-17 4.258099198817889e-16
rhumerus -45.631753473429086 10.517743467327035 -94.42879734694387
rradius 97.79845353705694
rwrist -17.622215209368626
rhand -18.84387169787974 38.31135973754735
rfingers 7.125019999999998
rthumb 6.915320764410258 8.907695163790484
